HIERARCHY
ROOT Hips
{
	OFFSET 0.00000 0.00000 0.00000
	CHANNELS 6 Xposition Yposition Zposition Zrotation Yrotation Xrotation 
	JOINT LHipJoint
	{
		OFFSET 0 0 0
		CHANNELS 3 Zrotation Yrotation Xrotation
		JOINT LeftHip
		{
			OFFSET 1.62964 -1.40469 0.78906
			CHANNELS 3 Zrotation Yrotation Xrotation
			JOINT LeftKnee
			{
				OFFSET 2.29640 -6.30932 0.00000
				CHANNELS 3 Zrotation Yrotation Xrotation
				JOINT LeftAnkle
				{
					OFFSET 2.29451 -6.30412 0.00000
					CHANNELS 3 Zrotation Yrotation Xrotation
					JOINT LeftToe
					{
						OFFSET 0.03611 -0.09921 1.56387
						CHANNELS 3 Zrotation Yrotation Xrotation
						End Site
						{
							OFFSET 0.00000 -0.00000 0.80291
						}
					}
				}
			}
		}
	}
	JOINT RHipJoint
	{
		OFFSET 0 0 0
		CHANNELS 3 Zrotation Yrotation Xrotation
		JOINT RightHip
		{
			OFFSET -1.73712 -1.40469 0.78906
			CHANNELS 3 Zrotation Yrotation Xrotation
			JOINT RightKnee
			{
				OFFSET -2.28137 -6.26801 0.00000
				CHANNELS 3 Zrotation Yrotation Xrotation
				JOINT RightAnkle
				{
					OFFSET -2.28681 -6.28298 0.00000
					CHANNELS 3 Zrotation Yrotation Xrotation
					JOINT RightToe
					{
						OFFSET -0.15927 -0.43759 1.61103
						CHANNELS 3 Zrotation Yrotation Xrotation
						End Site
						{
							OFFSET -0.00000 -0.00000 0.84630
						}
					}
				}
			}
		}
	}
	JOINT lowerback
	{
		OFFSET 0 0 0
		CHANNELS 3 Zrotation Yrotation Xrotation
		JOINT Chest
		{
			OFFSET -0.04227 2.04338 -0.00225
			CHANNELS 3 Zrotation Yrotation Xrotation
			JOINT Chest2
			{
				OFFSET -0.02148 2.04482 -0.04273
				CHANNELS 3 Zrotation Yrotation Xrotation
				JOINT lowerneck
				{
					OFFSET 0 0 0
					CHANNELS 3 Zrotation Yrotation Xrotation
					JOINT Neck
					{
						OFFSET 0.09180 1.44629 0.19359
						CHANNELS 3 Zrotation Yrotation Xrotation
						JOINT Head
						{
							OFFSET 0.00887 1.40645 0.14750
							CHANNELS 3 Zrotation Yrotation Xrotation
							End Site
							{
								OFFSET -0.00669 1.50671 0.03707
							}
						}
					}
				}
				JOINT LeftCollar
				{
					OFFSET 0 0 0
					CHANNELS 3 Zrotation Yrotation Xrotation
					JOINT LeftShoulder
					{
						OFFSET 2.17674 1.86763 -0.06520
CHANNELS 3 Zrotation Xrotation Yrotation
						JOINT LeftElbow
						{
OFFSET 0 -4.657760 0.000000
CHANNELS 3 Zrotation Xrotation Yrotation
							JOINT LeftWrist
							{
OFFSET 0 -3.555390 0.000000
CHANNELS 3 Zrotation Xrotation Yrotation
								JOINT lhand
								{
									OFFSET 0 0 0
CHANNELS 3 Zrotation Xrotation Yrotation
									JOINT LFingers
									{
OFFSET 0 -0.707260 0.000000
CHANNELS 3 Zrotation Xrotation Yrotation
										End Site
										{
OFFSET 0 -0.570220 0.000000
										}
									}
								}
								JOINT LThumb
								{
OFFSET 0 0.000000 0.000000
CHANNELS 3 Zrotation Xrotation Yrotation
									End Site
									{
OFFSET 0 -0.578920 0.578920
									}
								}
							}
						}
					}
				}
				JOINT RightCollar
				{
					OFFSET 0 0 0
					CHANNELS 3 Zrotation Yrotation Xrotation
					JOINT RightShoulder
					{
						OFFSET -2.80694 1.55459 -0.32496
CHANNELS 3 Zrotation Xrotation Yrotation
						JOINT RightElbow
						{
OFFSET 0 -4.719250 -0.000000
CHANNELS 3 Zrotation Xrotation Yrotation
							JOINT RightWrist
							{
OFFSET 0 -3.569900 0.000000
CHANNELS 3 Zrotation Xrotation Yrotation
								JOINT rhand
								{
									OFFSET 0 0 0
CHANNELS 3 Zrotation Xrotation Yrotation
									JOINT RFingers
									{
OFFSET 0 -0.507760 0.000000
CHANNELS 3 Zrotation Xrotation Yrotation
										End Site
										{
OFFSET 0 -0.409370 0.000000
										}
									}
								}
								JOINT RThumb
								{
OFFSET 0 0.000000 0.000000
CHANNELS 3 Zrotation Xrotation Yrotation
									End Site
									{
OFFSET 0 -0.415620 0.415620
									}
								}
							}
						}
					}
				}
			}
		}
	}
}
MOTION
Frames: 8
Frame Time: 0.008333333333333333
9.916800 16.402000 5.697200 0.403000 -7.442700 23.810000 0.000000 0.000000 0.000000 -16.330300 -13.800800 -15.848000 0.075300 1.769700 4.869600 0.174000 0.933400 -8.277000 2.669000 -10.138900 -29.427700 0.000000 0.000000 0.000000 16.193100 13.025600 -18.110000 -0.046200 -1.387500 3.815700 -0.464100 5.692800 -12.180100 -1.712600 8.239900 -23.445000 -5.290600 -2.878500 -28.919900 -0.376100 -2.026400 -2.770300 1.825000 -1.208100 13.107800 -3.221900 -10.098500 0.930000 7.197500 -13.243600 -6.813900 2.985500 -6.718100 -1.583200 0.000000 -0.000000 0.000000 4.486500 -1.009800 6.314700 6.813400 -11.611800 0.693600 35.861100 13.637800 16.492400 0.000000 0.000000 0.000000 -7.125000 0.000000 0.000000 5.268800 9.978900 4.294800 0.000000 -0.000000 0.000000 0.878800 0.164800 5.529300 -12.716500 -20.870500 -2.351300 -19.186400 25.351700 47.657400 0.000000 0.000000 0.000000 7.125000 0.000000 -0.000000 42.442400 76.055300 -32.103100
9.917409 16.400895 5.699200 0.488435 -6.506340 23.699136 0.000000 0.000000 0.000000 -16.380648 -13.944777 -15.887267 0.083012 1.858036 5.113439 0.177781 0.173480 -8.028745 2.881560 -10.500769 -30.614037 0.000000 0.000000 0.000000 16.429310 11.958498 -18.014956 -0.040782 -1.302730 3.582064 -0.492242 5.997014 -12.558519 -0.872902 5.956059 -16.657018 -5.031144 -2.899818 -28.603621 -0.459774 -2.140587 -2.681126 1.540235 -1.242230 13.043015 -2.896489 -10.158376 0.066615 6.980804 -13.347730 -5.818574 2.755368 -6.750505 -1.142909 0.000000 0.000000 0.000000 5.247539 -0.548354 3.167048 8.055430 -13.642628 0.965192 36.909547 7.167031 17.018861 0.000000 0.000000 0.000000 -7.125000 0.000000 0.000000 5.856038 9.120514 4.879992 0.000000 0.000000 0.000000 0.936249 -0.412431 3.291141 -12.270995 -20.209877 -2.195050 -18.191870 25.945715 46.789587 0.000000 0.000000 0.000000 7.125000 0.000000 0.000000 40.756880 75.106945 -29.991632
9.904054 16.407011 5.683954 0.543152 -6.154472 23.733635 0.000000 0.000000 0.000000 -16.193819 -14.025391 -16.241969 0.089662 1.930883 5.314730 0.171207 -0.210974 -7.741820 2.504742 -9.846513 -28.481038 0.000000 0.000000 0.000000 16.362157 12.203721 -18.115104 -0.046030 -1.384592 3.807550 -0.525984 5.611358 -12.936643 -0.735787 5.462111 -15.236307 -5.181666 -2.938630 -28.021199 -0.371832 -2.200268 -2.889510 1.726442 -1.270292 12.504935 -3.257583 -10.144124 0.295848 7.154364 -13.359189 -5.156411 2.853580 -6.748931 -0.933129 0.000000 0.000000 0.000000 5.552557 -0.560200 1.506491 8.903114 -15.005932 1.174939 39.020747 1.749723 18.075628 0.000000 0.000000 0.000000 -7.125000 0.000000 0.000000 7.003618 7.333216 6.099362 0.000000 0.000000 0.000000 0.692565 -0.551090 3.792193 -12.205354 -20.111885 -2.172374 -18.114442 25.296811 46.223283 0.000000 0.000000 0.000000 7.125000 0.000000 0.000000 39.214280 74.695265 -28.460595
9.900805 16.404789 5.671326 0.550770 -5.973382 23.872361 0.000000 0.000000 0.000000 -16.054522 -14.005584 -16.641493 0.096268 2.001116 5.508622 0.170790 -0.466623 -7.652972 2.696349 -10.186312 -29.582413 0.000000 0.000000 0.000000 16.296874 12.404791 -18.315410 -0.049595 -1.437246 3.952892 -0.472384 4.812831 -12.233688 -3.087285 10.835062 -31.725568 -5.193449 -2.861380 -28.044009 -0.403870 -2.087358 -2.826163 1.737998 -1.220208 12.582087 -2.895009 -9.933154 0.327447 7.121169 -13.069807 -5.182532 2.792078 -6.611196 -0.988801 0.000000 0.000000 0.000000 5.635055 -0.771715 -1.964328 9.727431 -16.312094 1.397461 36.517629 -2.342883 18.457758 0.000000 0.000000 0.000000 -7.125000 0.000000 0.000000 5.364098 7.507787 4.638081 0.000000 0.000000 0.000000 0.805454 -0.871190 5.289226 -12.672217 -20.805001 -2.335521 -18.225727 23.545073 47.198959 0.000000 0.000000 0.000000 7.125000 0.000000 0.000000 41.950957 75.387236 -31.165308
9.916748 16.407196 5.671509 0.664980 -5.764618 23.785776 0.000000 0.000000 0.000000 -16.238408 -14.220890 -16.487907 0.095766 1.995792 5.494146 0.171728 -0.635816 -7.626704 2.603677 -10.023875 -29.054276 0.000000 0.000000 0.000000 16.115406 12.341388 -18.234264 -0.051562 -1.465380 4.030382 -0.484536 4.734348 -12.387451 -2.435657 9.719972 -28.074651 -5.192824 -2.754131 -28.040289 -0.447722 -1.934710 -2.622173 1.741821 -1.155551 12.806971 -2.695099 -9.483548 -0.198795 6.940728 -12.464089 -5.133857 2.674510 -6.300369 -0.939355 0.000000 0.000000 0.000000 5.261230 -1.152113 -4.429593 10.219809 -17.082679 1.538916 36.725872 -4.083080 18.080374 0.000000 0.000000 0.000000 -7.125000 0.000000 0.000000 5.559915 7.903364 4.765607 0.000000 0.000000 0.000000 0.981110 -0.911453 7.307536 -13.535892 -22.067343 -2.651238 -18.558480 22.011073 48.884862 0.000000 0.000000 0.000000 7.125000 0.000000 0.000000 47.215908 76.539678 -36.435956
9.932195 16.404364 5.681035 0.691223 -5.600682 23.922292 0.000000 0.000000 0.000000 -16.313012 -14.339111 -16.471873 0.088416 1.917903 5.278961 0.163332 -0.652653 -7.429667 2.514917 -9.864259 -28.539067 0.000000 0.000000 0.000000 16.001579 12.519695 -18.270357 -0.051632 -1.466606 4.033598 -0.545058 4.592243 -13.139414 -1.688569 8.164243 -23.226122 -5.173611 -2.580065 -28.357866 -0.532263 -1.674712 -2.463553 1.723773 -1.040413 13.139446 -2.258708 -8.865157 0.263923 6.940574 -11.582006 -6.348908 2.692982 -5.890214 -1.478887 0.000000 0.000000 0.000000 4.865652 -1.693259 -5.509417 10.309998 -17.223054 1.565477 36.358737 -3.895145 17.820326 0.000000 0.000000 0.000000 -7.125000 0.000000 0.000000 5.371258 8.297760 4.560439 0.000000 0.000000 0.000000 1.206952 -1.507398 7.317365 -13.305300 -21.732950 -2.565191 -18.677948 22.383578 47.224446 0.000000 0.000000 0.000000 7.125000 0.000000 0.000000 41.575748 75.579038 -31.021187
9.956216 16.395947 5.707706 0.545092 -5.442534 23.983297 0.000000 0.000000 0.000000 -16.374625 -13.916470 -16.210658 0.071032 1.719691 4.731700 0.152705 -0.974649 -7.100127 2.491170 -9.821707 -28.401407 0.000000 0.000000 0.000000 16.236726 11.950459 -18.208877 -0.044252 -1.358055 3.734396 -0.576867 5.167428 -13.522605 -0.970910 6.248161 -17.514023 -4.783810 -2.381954 -28.571556 -0.506467 -1.526079 -2.359539 1.581197 -0.956278 13.355536 -2.634056 -7.766952 0.529439 7.530178 -10.047489 -7.381086 3.013925 -5.146012 -1.889577 0.000000 0.000000 0.000000 4.126235 -1.594895 -5.664178 10.444622 -17.432039 1.605616 36.561108 -3.670897 18.376806 0.000000 0.000000 0.000000 -7.125000 0.000000 0.000000 5.405242 7.592729 4.665041 0.000000 0.000000 0.000000 1.361977 -1.303590 8.091254 -13.506945 -22.025437 -2.640360 -19.949027 23.226557 47.796987 0.000000 0.000000 0.000000 7.125000 0.000000 0.000000 42.152849 76.444917 -32.183966
9.974764 16.396300 5.719911 0.582175 -5.403131 24.168689 0.000000 0.000000 0.000000 -16.533056 -13.578978 -16.491853 0.063147 1.621518 4.460836 0.134794 -0.911807 -6.671999 3.999921 -12.156605 -36.293543 0.000000 0.000000 0.000000 16.060137 11.979800 -18.530119 -0.049387 -1.434239 3.944437 -0.587425 5.039802 -13.644780 -0.975349 6.286728 -17.618706 -4.756616 -2.234929 -28.338295 -0.451509 -1.373456 -2.625696 1.698538 -0.877051 12.908153 -2.686163 -5.920059 1.316246 7.211053 -7.544959 -8.429097 2.992194 -3.910447 -2.531110 0.000000 0.000000 0.000000 3.720661 -1.011941 -5.798348 10.056777 -16.828165 1.491386 37.400591 -2.989197 18.063607 0.000000 0.000000 0.000000 -7.125000 0.000000 0.000000 5.988603 7.759262 5.154292 0.000000 0.000000 0.000000 1.466321 -1.376916 6.398095 -13.006086 -21.296088 -2.455561 -18.844014 23.342826 46.981329 0.000000 0.000000 0.000000 7.125000 0.000000 0.000000 40.662931 75.484740 -30.218542
